# xmcd
#
# Track frame offsets:
#	150
#	5099
#	21717
#	39362
#	54798
#	76237
#	97765
#	115994
#	131357
#	146558
#	159633
#	172168
#	184209
#	200289
#	211193
#
# Disc length: 2971 seconds
#
# Revision: 0
# Processed by: cddbd v1.4PL0 Copyright (c) Steve Scherf et al.
# Submitted via: EasyCDDAExtractor 4.6.0.1
#
DISCID=c60b990f
DTITLE=goog mornign boy
DYEAR=2002
DGENRE=
TTITLE0=1,2,3,4,5
TTITLE1=good mornign blues
TTITLE2=morning scope
TTITLE3=migrant boy
TTITLE4=parallels (a movie)
TTITLE5=this is for me
TTITLE6=i'm the killer
TTITLE7=snowfall
TTITLE8=i drive
TTITLE9=lily
TTITLE10=a day on the bay
TTITLE11=bargain
TTITLE12=lovesong
TTITLE13=shes the protector
TTITLE14=i saw jupiter
EXTD=
EXTT0=
EXTT1=
EXTT2=
EXTT3=
EXTT4=
EXTT5=
EXTT6=
EXTT7=
EXTT8=
EXTT9=
EXTT10=
EXTT11=
EXTT12=
EXTT13=
EXTT14=
PLAYORDER=
